<svg width="135" height="135" viewBox="0 0 135 135" fill="none" xmlns="http://www.w3.org/2000/svg">
<g filter="url(#filter0_d_1513_6705)">
<circle cx="67.3" cy="62.3" r="54" fill="white"/>
</g>
<path d="M57.55 59.05V88.3M57.55 59.05H43.2503C41.4301 59.05 40.5194 59.0512 39.8242 59.4055C39.2126 59.717 38.7158 60.2104 38.4042 60.822C38.05 61.5172 38.05 62.4298 38.05 64.25V88.3H57.55M57.55 59.05V41.5C57.55 39.6798 57.55 38.7672 57.9042 38.072C58.2158 37.4604 58.7126 36.967 59.3242 36.6555C60.0194 36.3012 60.9301 36.3 62.7503 36.3H71.8503C73.6705 36.3 74.5793 36.3012 75.2745 36.6555C75.886 36.967 76.3845 37.4605 76.6961 38.072C77.05 38.7665 77.05 39.6768 77.05 41.4934V49.3M57.55 88.3H77.05M77.05 88.3H96.55V54.4934C96.55 52.6768 96.55 51.7665 96.1961 51.072C95.8845 50.4605 95.3864 49.967 94.7748 49.6555C94.0796 49.3012 93.1702 49.3 91.35 49.3H77.05M77.05 88.3V49.3" stroke="#FCC519" stroke-width="5" stroke-linecap="round" stroke-linejoin="round"/>
<defs>
<filter id="filter0_d_1513_6705" x="-1.23978e-05" y="-1.23978e-05" width="134.6" height="134.6" filterUnits="userSpaceOnUse" color-interpolation-filters="sRGB">
<feFlood flood-opacity="0" result="BackgroundImageFix"/>
<feColorMatrix in="SourceAlpha" type="matrix" values="0 0 0 0 0 0 0 0 0 0 0 0 0 0 0 0 0 0 127 0" result="hardAlpha"/>
<feOffset dy="5"/>
<feGaussianBlur stdDeviation="6.65"/>
<feComposite in2="hardAlpha" operator="out"/>
<feColorMatrix type="matrix" values="0 0 0 0 0 0 0 0 0 0 0 0 0 0 0 0 0 0 0.16 0"/>
<feBlend mode="normal" in2="BackgroundImageFix" result="effect1_dropShadow_1513_6705"/>
<feBlend mode="normal" in="SourceGraphic" in2="effect1_dropShadow_1513_6705" result="shape"/>
</filter>
</defs>
</svg>
