<svg width="135" height="135" viewBox="0 0 135 135" fill="none" xmlns="http://www.w3.org/2000/svg">
<g filter="url(#filter0_d_1513_6706)">
<circle cx="67.3" cy="62.3" r="54" fill="white"/>
</g>
<path d="M86.16 88.3L92.6274 88.3C94.0327 88.3 94.736 88.3 95.3266 88.0588C95.848 87.8458 96.3067 87.4997 96.6547 87.0568C97.049 86.5551 97.2428 85.8804 97.6291 84.5285L101.158 72.1785C101.801 69.9283 102.12 68.8031 101.868 67.9129C101.647 67.1331 101.143 66.4643 100.454 66.0373C99.7127 65.5782 98.6301 65.5516 96.5507 65.5501M86.16 88.3H48.4399M86.16 88.3C89.7933 88.3 91.61 88.3 92.999 87.5922C94.2221 86.969 95.219 85.9733 95.8422 84.7503C96.5507 83.3599 96.5507 81.5397 96.5507 77.8993V65.5501M48.4399 88.3H44.9435C42.6049 88.3 41.4324 88.3 40.6462 87.8128C39.9572 87.3859 39.4522 86.7168 39.231 85.937C39.1844 85.7727 39.1574 85.6005 39.1484 85.4146M48.4399 88.3C44.8067 88.3 42.9874 88.3 41.5983 87.5922C40.6053 87.0862 39.7634 86.3342 39.1484 85.4146M96.5507 65.5501C96.4227 65.55 96.291 65.55 96.1553 65.55H44.5509L39.9448 81.6714L39.9381 81.694C39.4177 83.5153 39.1088 84.5966 39.1484 85.4146M96.5507 65.5501L96.5507 53.1993C96.5507 49.5589 96.5507 47.7388 95.8422 46.3483C95.2191 45.1253 94.2227 44.1316 92.9997 43.5084C91.6092 42.8 89.7903 42.8 86.15 42.8H67.3M39.1484 85.4146C39.0059 85.2016 38.8756 84.9796 38.7584 84.7497C38.05 83.3592 38.05 81.5403 38.05 77.9V42.8M38.05 42.8H67.3M38.05 42.8C38.05 39.2101 40.9601 36.3 44.55 36.3H56.4922C58.082 36.3 58.8788 36.3 59.6269 36.4796C60.2901 36.6388 60.923 36.9021 61.5046 37.2585C62.1603 37.6603 62.7234 38.2234 63.8469 39.3469L67.3 42.8" stroke="#FCC519" stroke-width="5" stroke-linecap="round" stroke-linejoin="round"/>
<defs>
<filter id="filter0_d_1513_6706" x="-1.23978e-05" y="-1.23978e-05" width="134.6" height="134.6" filterUnits="userSpaceOnUse" color-interpolation-filters="sRGB">
<feFlood flood-opacity="0" result="BackgroundImageFix"/>
<feColorMatrix in="SourceAlpha" type="matrix" values="0 0 0 0 0 0 0 0 0 0 0 0 0 0 0 0 0 0 127 0" result="hardAlpha"/>
<feOffset dy="5"/>
<feGaussianBlur stdDeviation="6.65"/>
<feComposite in2="hardAlpha" operator="out"/>
<feColorMatrix type="matrix" values="0 0 0 0 0 0 0 0 0 0 0 0 0 0 0 0 0 0 0.16 0"/>
<feBlend mode="normal" in2="BackgroundImageFix" result="effect1_dropShadow_1513_6706"/>
<feBlend mode="normal" in="SourceGraphic" in2="effect1_dropShadow_1513_6706" result="shape"/>
</filter>
</defs>
</svg>
