<svg width="113" height="112" viewBox="0 0 113 112" fill="none" xmlns="http://www.w3.org/2000/svg">
<mask id="path-1-inside-1_1432_5606" fill="white">
<path d="M112 56.0084C112 67.0842 108.716 77.9112 102.562 87.1204C96.409 96.3295 87.663 103.507 77.4303 107.746C67.1976 111.984 55.9379 113.093 45.075 110.932C34.212 108.772 24.2338 103.438 16.402 95.6064C8.57031 87.7747 3.23682 77.7964 1.07605 66.9335C-1.08472 56.0705 0.0242655 44.8108 4.26277 34.5782C8.50128 24.3455 15.6789 15.5995 24.8881 9.44612C34.0972 3.29277 44.9243 0.00842272 56 0.00842285V31.6435C51.1811 31.6435 46.4704 33.0725 42.4636 35.7498C38.4568 38.427 35.3339 42.2323 33.4898 46.6844C31.6457 51.1365 31.1632 56.0354 32.1033 60.7618C33.0434 65.4881 35.364 69.8295 38.7714 73.237C42.1789 76.6445 46.5203 78.965 51.2467 79.9052C55.973 80.8453 60.872 80.3628 65.3241 78.5186C69.7762 76.6745 73.5814 73.5516 76.2587 69.5448C78.9359 65.538 80.3649 60.8273 80.3649 56.0084H112Z"/>
</mask>
<path d="M112 56.0084C112 67.0842 108.716 77.9112 102.562 87.1204C96.409 96.3295 87.663 103.507 77.4303 107.746C67.1976 111.984 55.9379 113.093 45.075 110.932C34.212 108.772 24.2338 103.438 16.402 95.6064C8.57031 87.7747 3.23682 77.7964 1.07605 66.9335C-1.08472 56.0705 0.0242655 44.8108 4.26277 34.5782C8.50128 24.3455 15.6789 15.5995 24.8881 9.44612C34.0972 3.29277 44.9243 0.00842272 56 0.00842285V31.6435C51.1811 31.6435 46.4704 33.0725 42.4636 35.7498C38.4568 38.427 35.3339 42.2323 33.4898 46.6844C31.6457 51.1365 31.1632 56.0354 32.1033 60.7618C33.0434 65.4881 35.364 69.8295 38.7714 73.237C42.1789 76.6445 46.5203 78.965 51.2467 79.9052C55.973 80.8453 60.872 80.3628 65.3241 78.5186C69.7762 76.6745 73.5814 73.5516 76.2587 69.5448C78.9359 65.538 80.3649 60.8273 80.3649 56.0084H112Z" fill="#EFEFEF" stroke="#E5E5E5" stroke-width="4" mask="url(#path-1-inside-1_1432_5606)"/>
<path d="M57.9996 0.512382C65.04 0.583123 70.7085 2.03396 77.2996 4.7702C84.0308 7.56464 90.1456 11.6573 95.2951 16.8149C100.445 21.9726 104.528 28.0941 107.312 34.8299C110.035 41.4198 111.439 47.446 111.497 54.5087L80.9924 54.5086C80.92 51.4811 80.1656 49.3538 78.9991 46.5311C77.7519 43.5135 75.9232 40.7708 73.6162 38.4601C71.3091 36.1494 68.5687 34.3159 65.5529 33.0639C62.7563 31.9029 60.9995 31.0995 57.9994 31.0175L57.9996 0.512382Z" fill="url(#paint0_linear_1432_5606)" stroke="#FBC70E"/>
<defs>
<linearGradient id="paint0_linear_1432_5606" x1="62.5" y1="21.0084" x2="107.5" y2="52.5084" gradientUnits="userSpaceOnUse">
<stop stop-color="#FBC911"/>
<stop offset="1" stop-color="#FDDD81"/>
</linearGradient>
</defs>
</svg>
