<svg width="144" height="95" viewBox="0 0 144 95" fill="none" xmlns="http://www.w3.org/2000/svg">
<circle cx="108.5" cy="28.5" r="5" fill="#FECF10" stroke="#FCC707"/>
<rect x="0.5" y="0.5" width="143" height="94" rx="14.5" stroke="#E5E5E5"/>
<path d="M29 38C29 38 44 28 45 28C46 28 70.5 51 71.5 51C72.5 51 87 41.5 88 41.5C89 41.5 110 62 111 62C112 62 115.5 59 115.5 59" stroke="#C9CACD" stroke-width="3" stroke-linecap="round"/>
<path d="M29 38C29 38 44 28 45 28C46 28 70.5 51 71.5 51C72.5 51 87 41.5 88 41.5C89 41.5 110 62 111 62C112 62 115.5 59 115.5 59" stroke="#CFD0D4" stroke-linecap="round"/>
<path d="M23 75H117.005" stroke="#EBECED" stroke-width="3" stroke-linecap="round"/>
</svg>
