<svg width="24" height="24" viewBox="0 0 24 24" fill="none" xmlns="http://www.w3.org/2000/svg">
<path d="M12.0273 0H11.9727C5.36035 0 0 5.36193 0 11.9762V12.0309C0 18.6451 5.36035 24.0071 11.9727 24.0071H12.0273C18.6397 24.0071 24 18.6451 24 12.0309V11.9762C24 5.36193 18.6397 0 12.0273 0Z" fill="url(#paint0_linear_1488_6646)"/>
<path d="M15.7135 4.88428H8.28723C6.23559 4.88428 4.56653 6.55383 4.56653 8.60608V15.402C4.56653 17.4543 6.23559 19.1238 8.28723 19.1238H15.7135C17.7651 19.1238 19.4342 17.4543 19.4342 15.402V8.60608C19.4342 6.55383 17.7651 4.88428 15.7135 4.88428ZM5.87908 8.60608C5.87908 7.278 6.95955 6.19721 8.28723 6.19721H15.7135C17.0412 6.19721 18.1217 7.278 18.1217 8.60608V15.402C18.1217 16.7301 17.0412 17.8109 15.7135 17.8109H8.28723C6.95955 17.8109 5.87908 16.7301 5.87908 15.402V8.60608Z" fill="white"/>
<path d="M12.0005 15.4648C13.9084 15.4648 15.4614 13.9122 15.4614 12.0029C15.4614 10.0937 13.9092 8.54102 12.0005 8.54102C10.0918 8.54102 8.53961 10.0937 8.53961 12.0029C8.53961 13.9122 10.0918 15.4648 12.0005 15.4648ZM12.0005 9.85479C13.1852 9.85479 14.1488 10.8187 14.1488 12.0038C14.1488 13.1888 13.1852 14.1527 12.0005 14.1527C10.8158 14.1527 9.85216 13.1888 9.85216 12.0038C9.85216 10.8187 10.8158 9.85479 12.0005 9.85479Z" fill="white"/>
<path d="M15.7816 9.10088C16.2954 9.10088 16.7141 8.68286 16.7141 8.16811C16.7141 7.65337 16.2962 7.23535 15.7816 7.23535C15.267 7.23535 14.8491 7.65337 14.8491 8.16811C14.8491 8.68286 15.267 9.10088 15.7816 9.10088Z" fill="white"/>
<defs>
<linearGradient id="paint0_linear_1488_6646" x1="3.50629" y1="20.4997" x2="20.4987" y2="3.51317" gradientUnits="userSpaceOnUse">
<stop stop-color="#FAAD4F"/>
<stop offset="0.35" stop-color="#DD2A7B"/>
<stop offset="0.62" stop-color="#9537B0"/>
<stop offset="1" stop-color="#515BD4"/>
</linearGradient>
</defs>
</svg>
