<svg width="120" height="65" viewBox="0 0 120 65" fill="none" xmlns="http://www.w3.org/2000/svg">
<path d="M64.4028 -5.72205e-05H62.9061L39.5229 23.3832C39.2741 23.1746 39.0152 22.9778 38.749 22.7907L51.9073 -5.72205e-05H49.5889L37.0111 21.7855C36.7174 21.6488 36.418 21.5222 36.1113 21.4105L41.8482 -5.72205e-05H39.7704L34.1715 20.8955C33.8537 20.8401 33.5315 20.7974 33.2052 20.7689V-5.72205e-05H31.1979V20.7689C30.8716 20.7974 30.5494 20.8401 30.2313 20.8955L24.6318 -5.72205e-05H22.5539L28.2915 21.4105C27.9848 21.5222 27.6854 21.6491 27.3917 21.7858L14.8129 -5.72205e-05H12.4946L25.6538 22.791C25.3876 22.9781 25.1287 23.175 24.8799 23.3835L1.49547 -5.72205e-05H0V1.3435L23.4601 24.8024C23.2512 25.0512 23.054 25.3098 22.8666 25.576L0 12.3746V14.6924L21.8599 27.3126C21.7228 27.6066 21.5956 27.9064 21.4832 28.2134L0 22.4574V24.5356L20.967 30.1532C20.9113 30.4713 20.8683 30.7938 20.8398 31.1208L0 31.1211V33.1284L20.8385 33.128C20.867 33.455 20.9094 33.7778 20.9645 34.0962L0 39.7138V41.792L21.4788 36.0364C21.5911 36.344 21.7177 36.6444 21.8551 36.9394L0 49.5577V51.8755L22.8597 38.677C23.0477 38.9451 23.2509 39.2014 23.4607 39.4521L32.2016 35.1179L40.9421 39.4521C41.1522 39.2014 41.3554 38.9447 41.5434 38.6767L64.4028 51.8742V49.5565L42.548 36.9387C42.6854 36.6441 42.8123 36.344 42.924 36.0361L64.4028 41.7914V39.7132L43.4383 34.0959C43.4937 33.7775 43.5361 33.4547 43.5643 33.1277L64.4028 33.1274V31.1201L43.5634 31.1205C43.5346 30.7935 43.4915 30.471 43.4358 30.1529L64.4028 24.5347V22.4565L42.9196 28.2131C42.8072 27.9061 42.68 27.6063 42.543 27.3123L64.4028 14.6914V12.3736L41.5362 25.5756C41.3488 25.3095 41.1516 25.0509 40.9427 24.8021L64.4028 1.3416V-5.72205e-05Z" fill="#FFCE00"/>
<path d="M63.0615 64.4028H64.4028V62.9055L32.2016 30.7047L0 62.907V64.4028H1.34292L27.5202 38.2248L12.4069 64.4028H14.7253L29.259 39.2285L22.5141 64.4028H24.5919L31.1979 39.7472L31.1983 64.4028H33.2055L33.2052 39.7475L39.8119 64.4028H41.8897L35.1441 39.2281L49.6788 64.4028H51.9972L36.8829 38.2248L63.0615 64.4028Z" fill="white"/>
<path d="M100.251 27.5641V36.2765V40.4847H96.5417C96.5084 40.4853 96.48 40.4923 96.4464 40.4923C96.3818 40.4923 96.3208 40.4869 96.2578 40.4847H92.6202V36.1685V27.5641H89.961V36.2765C89.961 38.4382 90.5338 40.0887 91.6796 41.2269C92.8253 42.366 94.3999 42.9351 96.4031 42.9351C98.4353 42.9351 100.028 42.3549 101.181 41.1946C102.334 40.0346 102.91 38.3518 102.91 36.1467V27.5641H100.251Z" fill="white"/>
<path d="M72.8718 42.9351V27.8018H75.3364L83.4433 38.2654V27.8018H86.0592V42.9351H83.8322L75.4874 32.1689V42.9351H72.8718Z" fill="white"/>
<path d="M109.817 35.3684V30.223H113.687H116.813V32.6395C116.814 32.6715 116.822 32.6987 116.822 32.731C116.822 32.762 116.814 32.7886 116.813 32.819V35.3684H109.817ZM115.914 37.206C117.024 36.8892 117.903 36.3451 118.552 35.5738C119.2 34.8028 119.524 33.8191 119.524 32.6227C119.524 31.1529 119.027 29.9818 118.033 29.1099C117.038 28.2379 115.662 27.8018 113.903 27.8018H107.159V42.9351H109.817V37.6602H113.104L116.865 42.9351H120L115.914 37.206Z" fill="white"/>
<path d="M104.547 64.1479V49.2862H107.329L111.851 56.3139L116.373 49.2862H119.154V64.1479H116.543V54.3079C116.307 54.2366 116.323 54.2411 116.087 54.1695L111.851 60.4961H111.766L107.572 54.2145C107.336 54.2857 107.351 54.2813 107.116 54.3525V64.1479H104.547Z" fill="white"/>
<path d="M91.8089 56.7171V56.6535V51.6641H95.6095H98.6796V54.0372C98.6805 54.0686 98.6875 54.0952 98.6875 54.1268C98.6875 54.1575 98.6802 54.1835 98.6796 54.2132V56.7171H91.8089ZM97.7959 58.5218C98.8856 58.2107 99.7493 57.6764 100.386 56.919C101.023 56.1616 101.342 55.1956 101.342 54.0208C101.342 52.5772 100.853 51.4274 99.8766 50.5709C98.8998 49.7148 97.5481 49.2862 95.8215 49.2862H89.1978V64.1479H91.8089V58.9677H95.036L98.7302 64.1479H101.808L97.7959 58.5218Z" fill="white"/>
<path d="M86.459 49.0318H80.5357C78.3132 49.0318 76.4806 49.775 75.0368 51.261C73.5932 52.7473 72.8712 54.5659 72.8712 56.7175C72.8712 58.8827 73.5932 60.7051 75.0368 62.1841C76.4806 63.6632 78.2781 64.4028 80.4293 64.4028C80.4654 64.4028 80.4999 64.4009 80.5357 64.4006V64.4028H86.459V62.0034H80.5357C80.5284 62.0034 80.5214 62.0037 80.5145 62.0037C80.5103 62.0037 80.5062 62.0034 80.5021 62.0034H75.6122V56.7666C75.6118 56.7501 75.6099 56.7343 75.6099 56.7175C75.6099 56.7004 75.6118 56.6843 75.6122 56.6672V51.4316H80.5018C80.5062 51.4316 80.51 51.4309 80.5145 51.4309C80.5214 51.4309 80.5284 51.4316 80.5357 51.4316H86.459V49.0318Z" fill="white"/>
</svg>
