<svg width="24" height="24" viewBox="0 0 24 24" fill="none" xmlns="http://www.w3.org/2000/svg">
<path d="M12.0273 0H11.9727C5.36034 0 0 5.36193 0 11.9762V12.0309C0 18.6451 5.36034 24.0071 11.9727 24.0071H12.0273C18.6397 24.0071 24 18.6451 24 12.0309V11.9762C24 5.36193 18.6397 0 12.0273 0Z" fill="#00B0F2"/>
<path d="M4.54554 11.5944C4.57917 11.5776 4.61282 11.5616 4.64562 11.5465C5.2157 11.2824 5.79336 11.0351 6.37017 10.7878C6.40128 10.7878 6.4534 10.7517 6.48283 10.7399C6.5274 10.7205 6.57197 10.702 6.61653 10.6827L6.87299 10.5725C7.04452 10.4993 7.2152 10.4262 7.38673 10.353C7.72895 10.2066 8.07117 10.0603 8.41339 9.91309C9.09783 9.6204 9.78313 9.32686 10.4676 9.03416C11.152 8.74146 11.8373 8.44792 12.5217 8.15523C13.2062 7.86253 13.8914 7.56899 14.5759 7.27629C15.2603 6.9836 15.9456 6.69006 16.6301 6.39736C16.7823 6.33176 16.9471 6.23419 17.1102 6.20559C17.2472 6.1812 17.3809 6.1341 17.5188 6.10803C17.7803 6.0584 18.0687 6.03822 18.3193 6.14672C18.4059 6.18457 18.4858 6.23755 18.5522 6.304C18.87 6.61857 18.8255 7.13499 18.7582 7.5774C18.2899 10.6608 17.8215 13.7451 17.3523 16.8285C17.2884 17.2516 17.201 17.7158 16.8672 17.9833C16.5846 18.2096 16.1827 18.2348 15.8338 18.1389C15.4848 18.0422 15.1771 17.8395 14.8752 17.6401C13.6232 16.8108 12.3704 15.9815 11.1184 15.1522C10.8207 14.9554 10.4894 14.698 10.4928 14.3406C10.4945 14.1252 10.6231 13.9335 10.7543 13.7627C11.8423 12.343 13.4122 11.3673 14.5801 10.0132C14.7449 9.82226 14.8744 9.47741 14.6482 9.36723C14.5137 9.30163 14.3589 9.39078 14.2362 9.47573C12.6924 10.5481 11.1495 11.6213 9.60571 12.6937C9.10205 13.0436 8.57401 13.4036 7.96692 13.4894C7.42374 13.5668 6.8772 13.4154 6.35168 13.2606C5.91108 13.1311 5.47131 12.9982 5.03323 12.8611C4.80032 12.7888 4.55984 12.7105 4.3799 12.5465C4.19996 12.3825 4.09655 12.1066 4.20502 11.888C4.27313 11.7509 4.40514 11.6642 4.54388 11.5936L4.54554 11.5944Z" fill="#FEFFFC"/>
</svg>
