<svg width="24" height="24" viewBox="0 0 24 24" fill="none" xmlns="http://www.w3.org/2000/svg">
<path d="M12.0273 0H11.9727C5.36035 0 0 5.36193 0 11.9762V12.0309C0 18.6451 5.36035 24.0071 11.9727 24.0071H12.0273C18.6397 24.0071 24 18.6451 24 12.0309V11.9762C24 5.36193 18.6397 0 12.0273 0Z" fill="#00E510"/>
<path d="M14.3388 15.5145C11.2672 15.5145 8.76824 13.014 8.7674 9.94148C8.76824 9.16263 9.40223 8.5293 10.1792 8.5293C10.259 8.5293 10.3381 8.53603 10.4137 8.54948C10.5802 8.57724 10.7383 8.63359 10.8838 8.71854C10.9048 8.73116 10.9191 8.75134 10.9225 8.77489L11.247 10.8213C11.2512 10.8456 11.2437 10.8692 11.2277 10.8869C11.0486 11.0854 10.8199 11.2283 10.5651 11.2998L10.4423 11.3343L10.4886 11.4529C10.9073 12.5194 11.7599 13.3714 12.827 13.792L12.9455 13.8391L12.98 13.7163C13.0515 13.4614 13.1944 13.2326 13.3928 13.0535C13.4071 13.04 13.4265 13.0333 13.4458 13.0333C13.45 13.0333 13.4542 13.0333 13.4593 13.0341L15.505 13.3588C15.5294 13.363 15.5496 13.3765 15.5622 13.3975C15.6463 13.543 15.7026 13.702 15.7312 13.8685C15.7447 13.9425 15.7505 14.0207 15.7505 14.1023C15.7505 14.8803 15.1174 15.5137 14.3388 15.5145Z" fill="#FDFDFD"/>
<path d="M19.7858 11.3294C19.6201 9.45714 18.7625 7.7203 17.3709 6.43933C15.9709 5.15079 14.1547 4.44092 12.2552 4.44092C8.08636 4.44092 4.69444 7.83385 4.69444 12.0039C4.69444 13.4035 5.08037 14.7669 5.81106 15.9545L4.18152 19.5628L9.39891 19.0068C10.3062 19.3786 11.2664 19.567 12.2544 19.567C12.5142 19.567 12.7808 19.5535 13.0481 19.5258C13.2836 19.5005 13.5215 19.4635 13.7553 19.4164C17.2464 18.7108 19.795 15.6114 19.8152 12.0443V12.0039C19.8152 11.7769 19.8051 11.5498 19.7849 11.3294H19.7858ZM9.59987 17.4231L6.71329 17.7309L7.57514 15.8208L7.40277 15.5895C7.39016 15.5727 7.37755 15.5558 7.36325 15.5365C6.61491 14.5028 6.21971 13.2816 6.21971 12.0048C6.21971 8.67578 8.9272 5.96749 12.2552 5.96749C15.3731 5.96749 18.0158 8.40074 18.2706 11.5069C18.284 11.6734 18.2916 11.8408 18.2916 12.0056C18.2916 12.0527 18.2908 12.099 18.2899 12.1486C18.226 14.9334 16.2812 17.2986 13.5602 17.9008C13.3525 17.947 13.1398 17.9824 12.9279 18.0051C12.7076 18.0303 12.4814 18.0429 12.2569 18.0429C11.4573 18.0429 10.6803 17.8882 9.9463 17.582C9.86474 17.5492 9.78485 17.5139 9.71002 17.4777L9.60072 17.4247L9.59987 17.4231Z" fill="#FDFDFD"/>
</svg>
