<svg width="24" height="24" viewBox="0 0 24 24" fill="none" xmlns="http://www.w3.org/2000/svg">
<path d="M24 12.0035C24 5.37417 18.6274 0 12 0C5.37259 0 0 5.37417 0 12.0035C0 18.6329 5.37259 24.0071 12 24.0071C18.6274 24.0071 24 18.6329 24 12.0035Z" fill="#FF0209"/>
<path d="M17.0939 17.3198C16.7364 17.3586 16.3704 17.3653 16.0197 17.3645C13.2834 17.3619 10.5471 17.3594 7.81165 17.3577C6.95071 17.3577 6.01304 17.3299 5.34773 16.7825C4.5981 16.1642 4.44211 15.0921 4.38139 14.1221C4.29707 12.7928 4.29032 11.4593 4.35947 10.1291C4.39741 9.39867 4.46403 8.6505 4.77855 7.98921C5.00454 7.51434 5.38146 7.08754 5.86379 6.86317C6.42454 6.60254 7.01143 6.64893 7.61518 6.64808C9.06047 6.6464 10.5058 6.64555 11.9511 6.64387C13.4537 6.64218 14.9572 6.64134 16.4598 6.63965C17.1698 6.63965 17.9321 6.65399 18.5114 7.06476C19.2593 7.59447 19.4626 8.60242 19.5562 9.51422C19.729 11.1936 19.7316 12.8907 19.5629 14.57C19.4929 15.2625 19.3765 15.9947 18.9204 16.5202C18.4684 17.0414 17.798 17.2422 17.0948 17.3189L17.0939 17.3198Z" fill="white"/>
<path d="M14.4471 12.0034L10.3692 9.64844V14.3584L14.4471 12.0034Z" fill="#FF0209"/>
</svg>
