<svg width="361" height="328" viewBox="0 0 361 328" fill="none" xmlns="http://www.w3.org/2000/svg">
<g filter="url(#filter0_d_1481_6525)">
<rect x="26.7" y="24.7002" width="320" height="290" rx="13" fill="white"/>
<rect x="27.2" y="25.2002" width="319" height="289" rx="12.5" stroke="black" stroke-opacity="0.1"/>
</g>
<g filter="url(#filter1_d_1481_6525)">
<rect x="5.70001" y="6.7002" width="320" height="290" rx="13" fill="white"/>
<rect x="6.20001" y="7.2002" width="319" height="289" rx="12.5" stroke="#ECECEC"/>
</g>
<rect x="21.7" y="24.7002" width="288" height="34" rx="9" fill="white"/>
<rect x="22.2" y="25.2002" width="287" height="33" rx="8.5" stroke="black" stroke-opacity="0.1"/>
<path d="M43.0333 44.0335L47.7 48.7002M39.1445 45.5891C36.1376 45.5891 33.7 43.1515 33.7 40.1446C33.7 37.1378 36.1376 34.7002 39.1445 34.7002C42.1513 34.7002 44.5889 37.1378 44.5889 40.1446C44.5889 43.1515 42.1513 45.5891 39.1445 45.5891Z" stroke="black" stroke-opacity="0.45" stroke-width="2" stroke-linecap="round" stroke-linejoin="round"/>
<path d="M60.61 46.7002V37.3402H68.0525V46.7002H66.694V38.6207H61.9685V46.7002H60.61ZM72.9261 46.8952C72.2241 46.8952 71.6153 46.737 71.0996 46.4207C70.5839 46.1044 70.1853 45.6689 69.9036 45.1142C69.6263 44.5552 69.4876 43.9117 69.4876 43.1837C69.4876 42.4514 69.6306 41.8079 69.9166 41.2532C70.2026 40.6942 70.6034 40.2609 71.1191 39.9532C71.6348 39.6412 72.2371 39.4852 72.9261 39.4852C73.6281 39.4852 74.2369 39.6434 74.7526 39.9597C75.2683 40.276 75.6669 40.7115 75.9486 41.2662C76.2303 41.8209 76.3711 42.46 76.3711 43.1837C76.3711 43.916 76.2281 44.5617 75.9421 45.1207C75.6604 45.6754 75.2618 46.1109 74.7461 46.4272C74.2304 46.7392 73.6238 46.8952 72.9261 46.8952ZM72.9261 45.6147C73.5978 45.6147 74.0983 45.3894 74.4276 44.9387C74.7613 44.4837 74.9281 43.8987 74.9281 43.1837C74.9281 42.4514 74.7591 41.8664 74.4211 41.4287C74.0874 40.9867 73.5891 40.7657 72.9261 40.7657C72.4711 40.7657 72.0963 40.8697 71.8016 41.0777C71.5069 41.2814 71.2881 41.5652 71.1451 41.9292C71.0021 42.2889 70.9306 42.707 70.9306 43.1837C70.9306 43.9204 71.0996 44.5097 71.4376 44.9517C71.7756 45.3937 72.2718 45.6147 72.9261 45.6147ZM83.7145 39.6802V46.7002H82.408V41.8187L78.898 46.7002H77.793V39.6802H79.0995V44.4642L82.616 39.6802H83.7145ZM88.5339 46.8952C87.8146 46.8952 87.2036 46.7349 86.7009 46.4142C86.1982 46.0935 85.8126 45.6537 85.5439 45.0947C85.2796 44.5357 85.1452 43.9009 85.1409 43.1902C85.1452 42.4665 85.2839 41.8274 85.5569 41.2727C85.8299 40.7137 86.2199 40.276 86.7269 39.9597C87.2339 39.6434 87.8427 39.4852 88.5534 39.4852C89.3204 39.4852 89.9747 39.6759 90.5164 40.0572C91.0624 40.4385 91.4221 40.9607 91.5954 41.6237L90.2434 42.0137C90.1091 41.6194 89.8881 41.3139 89.5804 41.0972C89.2771 40.8762 88.9282 40.7657 88.5339 40.7657C88.0876 40.7657 87.7214 40.8719 87.4354 41.0842C87.1494 41.2922 86.9371 41.5782 86.7984 41.9422C86.6597 42.3062 86.5882 42.7222 86.5839 43.1902C86.5882 43.9139 86.7529 44.4989 87.0779 44.9452C87.4072 45.3915 87.8926 45.6147 88.5339 45.6147C88.9716 45.6147 89.3247 45.515 89.5934 45.3157C89.8664 45.112 90.0744 44.8217 90.2174 44.4447L91.5954 44.7697C91.3657 45.4544 90.9866 45.9809 90.4579 46.3492C89.9292 46.7132 89.2879 46.8952 88.5339 46.8952ZM92.9131 46.7002L92.9196 39.6802H94.2976V43.0602L97.0536 39.6802H98.7826L95.8706 43.1902L99.0816 46.7002H97.2356L94.2976 43.3202V46.7002H92.9131ZM102.333 46.7002V39.6802H108.255V46.7002H106.896V40.9607H103.692V46.7002H102.333ZM113.119 46.8952C112.417 46.8952 111.809 46.737 111.293 46.4207C110.777 46.1044 110.379 45.6689 110.097 45.1142C109.82 44.5552 109.681 43.9117 109.681 43.1837C109.681 42.4514 109.824 41.8079 110.11 41.2532C110.396 40.6942 110.797 40.2609 111.312 39.9532C111.828 39.6412 112.43 39.4852 113.119 39.4852C113.821 39.4852 114.43 39.6434 114.946 39.9597C115.462 40.276 115.86 40.7115 116.142 41.2662C116.424 41.8209 116.564 42.46 116.564 43.1837C116.564 43.916 116.421 44.5617 116.135 45.1207C115.854 45.6754 115.455 46.1109 114.939 46.4272C114.424 46.7392 113.817 46.8952 113.119 46.8952ZM113.119 45.6147C113.791 45.6147 114.292 45.3894 114.621 44.9387C114.955 44.4837 115.121 43.8987 115.121 43.1837C115.121 42.4514 114.952 41.8664 114.614 41.4287C114.281 40.9867 113.782 40.7657 113.119 40.7657C112.664 40.7657 112.29 40.8697 111.995 41.0777C111.7 41.2814 111.481 41.5652 111.338 41.9292C111.195 42.2889 111.124 42.707 111.124 43.1837C111.124 43.9204 111.293 44.5097 111.631 44.9517C111.969 45.3937 112.465 45.6147 113.119 45.6147ZM120.589 46.7002V39.6802H123.676C123.88 39.6802 124.084 39.6932 124.287 39.7192C124.491 39.7409 124.671 39.7734 124.827 39.8167C125.182 39.9164 125.486 40.1157 125.737 40.4147C125.988 40.7094 126.114 41.1037 126.114 41.5977C126.114 41.8794 126.071 42.1177 125.984 42.3127C125.897 42.5034 125.778 42.668 125.626 42.8067C125.557 42.8674 125.483 42.9215 125.405 42.9692C125.327 43.0169 125.249 43.0537 125.171 43.0797C125.332 43.1057 125.49 43.162 125.646 43.2487C125.884 43.3744 126.079 43.5564 126.231 43.7947C126.387 44.0287 126.465 44.3429 126.465 44.7372C126.465 45.2095 126.35 45.606 126.12 45.9267C125.891 46.243 125.566 46.4597 125.145 46.5767C124.981 46.6244 124.794 46.6569 124.586 46.6742C124.383 46.6915 124.179 46.7002 123.975 46.7002H120.589ZM121.967 45.6277H123.891C123.982 45.6277 124.086 45.619 124.203 45.6017C124.32 45.5844 124.424 45.5605 124.515 45.5302C124.71 45.4695 124.849 45.359 124.931 45.1987C125.018 45.0384 125.061 44.8672 125.061 44.6852C125.061 44.4382 124.996 44.241 124.866 44.0937C124.736 43.942 124.571 43.8445 124.372 43.8012C124.285 43.7709 124.19 43.7535 124.086 43.7492C123.982 43.7449 123.893 43.7427 123.819 43.7427H121.967V45.6277ZM121.967 42.6507H123.488C123.614 42.6507 123.741 42.6442 123.871 42.6312C124.001 42.6139 124.114 42.5857 124.209 42.5467C124.378 42.4817 124.504 42.3734 124.586 42.2217C124.669 42.0657 124.71 41.8967 124.71 41.7147C124.71 41.5154 124.664 41.3377 124.573 41.1817C124.482 41.0257 124.346 40.9174 124.164 40.8567C124.038 40.8134 123.893 40.7895 123.728 40.7852C123.568 40.7765 123.466 40.7722 123.423 40.7722H121.967V42.6507ZM133.683 39.6802V46.7002H132.377V41.8187L128.867 46.7002H127.762V39.6802H129.068V44.4642L132.585 39.6802H133.683ZM134.98 48.2602V45.6082C135.365 45.6082 135.64 45.4804 135.805 45.2247C135.974 44.9647 136.108 44.5249 136.208 43.9052C136.269 43.5282 136.319 43.1274 136.358 42.7027C136.401 42.278 136.438 41.8187 136.468 41.3247C136.498 40.8264 136.529 40.2782 136.559 39.6802H141.59V45.6082H142.279V48.2602H140.992V46.7002H136.273V48.2602H134.98ZM136.923 45.6082H140.225V40.7722H137.768C137.751 41.0582 137.731 41.3529 137.71 41.6562C137.692 41.9595 137.671 42.2607 137.645 42.5597C137.623 42.8587 137.597 43.1447 137.567 43.4177C137.536 43.6907 137.502 43.9377 137.463 44.1587C137.411 44.501 137.348 44.787 137.274 45.0167C137.205 45.2464 137.088 45.4435 136.923 45.6082ZM146.687 46.8952C145.99 46.8952 145.377 46.7435 144.848 46.4402C144.324 46.1325 143.914 45.7057 143.619 45.1597C143.329 44.6094 143.184 43.9724 143.184 43.2487C143.184 42.4817 143.327 41.8165 143.613 41.2532C143.903 40.6899 144.306 40.2544 144.822 39.9467C145.338 39.639 145.938 39.4852 146.622 39.4852C147.337 39.4852 147.946 39.652 148.449 39.9857C148.952 40.315 149.326 40.7852 149.573 41.3962C149.825 42.0072 149.924 42.733 149.872 43.5737H148.514V43.0797C148.505 42.265 148.349 41.6627 148.046 41.2727C147.747 40.8827 147.29 40.6877 146.674 40.6877C145.994 40.6877 145.483 40.9022 145.14 41.3312C144.798 41.7602 144.627 42.3799 144.627 43.1902C144.627 43.9615 144.798 44.5595 145.14 44.9842C145.483 45.4045 145.977 45.6147 146.622 45.6147C147.047 45.6147 147.413 45.5194 147.721 45.3287C148.033 45.1337 148.276 44.8564 148.449 44.4967L149.781 44.9192C149.508 45.5475 149.095 46.035 148.54 46.3817C147.985 46.724 147.368 46.8952 146.687 46.8952ZM144.185 43.5737V42.5142H149.196V43.5737H144.185ZM154.379 46.8952C153.677 46.8952 153.068 46.737 152.553 46.4207C152.037 46.1044 151.638 45.6689 151.357 45.1142C151.079 44.5552 150.941 43.9117 150.941 43.1837C150.941 42.4514 151.084 41.8079 151.37 41.2532C151.656 40.6942 152.057 40.2609 152.572 39.9532C153.088 39.6412 153.69 39.4852 154.379 39.4852C155.081 39.4852 155.69 39.6434 156.206 39.9597C156.721 40.276 157.12 40.7115 157.402 41.2662C157.683 41.8209 157.824 42.46 157.824 43.1837C157.824 43.916 157.681 44.5617 157.395 45.1207C157.114 45.6754 156.715 46.1109 156.199 46.4272C155.684 46.7392 155.077 46.8952 154.379 46.8952ZM154.379 45.6147C155.051 45.6147 155.551 45.3894 155.881 44.9387C156.214 44.4837 156.381 43.8987 156.381 43.1837C156.381 42.4514 156.212 41.8664 155.874 41.4287C155.541 40.9867 155.042 40.7657 154.379 40.7657C153.924 40.7657 153.549 40.8697 153.255 41.0777C152.96 41.2814 152.741 41.5652 152.598 41.9292C152.455 42.2889 152.384 42.707 152.384 43.1837C152.384 43.9204 152.553 44.5097 152.891 44.9517C153.229 45.3937 153.725 45.6147 154.379 45.6147ZM159.948 49.8202L161.306 46.1217L161.326 47.2137L158.264 39.6802H159.681L161.969 45.4977H161.553L163.737 39.6802H165.115L161.241 49.8202H159.948ZM169.429 46.8952C168.757 46.8952 168.194 46.7327 167.739 46.4077C167.284 46.0784 166.939 45.6342 166.705 45.0752C166.471 44.5162 166.354 43.8857 166.354 43.1837C166.354 42.4817 166.469 41.8512 166.699 41.2922C166.933 40.7332 167.275 40.2934 167.726 39.9727C168.181 39.6477 168.74 39.4852 169.403 39.4852C170.062 39.4852 170.629 39.6477 171.106 39.9727C171.587 40.2934 171.957 40.7332 172.217 41.2922C172.477 41.8469 172.607 42.4774 172.607 43.1837C172.607 43.8857 172.477 44.5184 172.217 45.0817C171.962 45.6407 171.596 46.0827 171.119 46.4077C170.647 46.7327 170.083 46.8952 169.429 46.8952ZM166.127 49.8202V39.6802H167.336V44.7307H167.492V49.8202H166.127ZM169.24 45.6667C169.674 45.6667 170.031 45.5562 170.313 45.3352C170.599 45.1142 170.811 44.8174 170.95 44.4447C171.093 44.0677 171.164 43.6474 171.164 43.1837C171.164 42.7244 171.093 42.3084 170.95 41.9357C170.811 41.563 170.597 41.2662 170.306 41.0452C170.016 40.8242 169.646 40.7137 169.195 40.7137C168.77 40.7137 168.419 40.8177 168.142 41.0257C167.869 41.2337 167.665 41.524 167.531 41.8967C167.401 42.2694 167.336 42.6984 167.336 43.1837C167.336 43.669 167.401 44.098 167.531 44.4707C167.661 44.8434 167.867 45.1359 168.148 45.3482C168.43 45.5605 168.794 45.6667 169.24 45.6667ZM177.091 46.8952C176.389 46.8952 175.78 46.737 175.265 46.4207C174.749 46.1044 174.35 45.6689 174.069 45.1142C173.791 44.5552 173.653 43.9117 173.653 43.1837C173.653 42.4514 173.796 41.8079 174.082 41.2532C174.368 40.6942 174.768 40.2609 175.284 39.9532C175.8 39.6412 176.402 39.4852 177.091 39.4852C177.793 39.4852 178.402 39.6434 178.918 39.9597C179.433 40.276 179.832 40.7115 180.114 41.2662C180.395 41.8209 180.536 42.46 180.536 43.1837C180.536 43.916 180.393 44.5617 180.107 45.1207C179.825 45.6754 179.427 46.1109 178.911 46.4272C178.395 46.7392 177.789 46.8952 177.091 46.8952ZM177.091 45.6147C177.763 45.6147 178.263 45.3894 178.593 44.9387C178.926 44.4837 179.093 43.8987 179.093 43.1837C179.093 42.4514 178.924 41.8664 178.586 41.4287C178.252 40.9867 177.754 40.7657 177.091 40.7657C176.636 40.7657 176.261 40.8697 175.967 41.0777C175.672 41.2814 175.453 41.5652 175.31 41.9292C175.167 42.2889 175.096 42.707 175.096 43.1837C175.096 43.9204 175.265 44.5097 175.603 44.9517C175.941 45.3937 176.437 45.6147 177.091 45.6147ZM181.958 46.7002L181.965 39.6802H183.343V43.0602L186.099 39.6802H187.828L184.916 43.1902L188.127 46.7002H186.281L183.343 43.3202V46.7002H181.958ZM190.764 46.8952C190.244 46.8952 189.809 46.7999 189.458 46.6092C189.107 46.4142 188.84 46.1585 188.658 45.8422C188.481 45.5215 188.392 45.1705 188.392 44.7892C188.392 44.4339 188.455 44.1219 188.58 43.8532C188.706 43.5845 188.892 43.357 189.139 43.1707C189.386 42.98 189.69 42.8262 190.049 42.7092C190.361 42.6182 190.715 42.538 191.109 42.4687C191.503 42.3994 191.917 42.3344 192.35 42.2737C192.788 42.213 193.221 42.1524 193.65 42.0917L193.156 42.3647C193.165 41.8144 193.048 41.407 192.805 41.1427C192.567 40.874 192.155 40.7397 191.57 40.7397C191.202 40.7397 190.864 40.8264 190.556 40.9997C190.249 41.1687 190.034 41.4504 189.913 41.8447L188.645 41.4547C188.819 40.8524 189.148 40.3735 189.633 40.0182C190.123 39.6629 190.773 39.4852 191.583 39.4852C192.212 39.4852 192.758 39.5935 193.221 39.8102C193.689 40.0225 194.032 40.3605 194.248 40.8242C194.361 41.0539 194.43 41.2965 194.456 41.5522C194.482 41.8079 194.495 42.083 194.495 42.3777V46.7002H193.293V45.0947L193.527 45.3027C193.237 45.84 192.866 46.2409 192.415 46.5052C191.969 46.7652 191.419 46.8952 190.764 46.8952ZM191.005 45.7837C191.391 45.7837 191.722 45.7165 191.999 45.5822C192.277 45.4435 192.5 45.268 192.669 45.0557C192.838 44.8434 192.948 44.6224 193 44.3927C193.074 44.1847 193.115 43.9507 193.124 43.6907C193.137 43.4307 193.143 43.2227 193.143 43.0667L193.585 43.2292C193.156 43.2942 192.766 43.3527 192.415 43.4047C192.064 43.4567 191.746 43.5087 191.46 43.5607C191.178 43.6084 190.927 43.6669 190.706 43.7362C190.52 43.8012 190.353 43.8792 190.205 43.9702C190.062 44.0612 189.948 44.1717 189.861 44.3017C189.779 44.4317 189.737 44.5899 189.737 44.7762C189.737 44.9582 189.783 45.1272 189.874 45.2832C189.965 45.4349 190.104 45.5562 190.29 45.6472C190.476 45.7382 190.715 45.7837 191.005 45.7837ZM196.177 46.7002V39.6802H197.314L199.908 44.8282L202.495 39.6802H203.639V46.7002H202.326V42.4622L200.213 46.7002H199.596L197.483 42.4622V46.7002H196.177Z" fill="black" fill-opacity="0.5"/>
<g filter="url(#filter2_d_1481_6525)">
<rect x="21.7" y="80.7002" width="288" height="108" rx="9" fill="white"/>
</g>
<circle cx="75.2" cy="135.2" r="27.5" fill="#FECB05"/>
<path d="M87.2 136.566C87.8667 136.181 87.8667 135.219 87.2 134.834L69.2 124.442C68.5333 124.057 67.7 124.538 67.7 125.308V146.093C67.7 146.862 68.5333 147.343 69.2 146.959L87.2 136.566Z" fill="white"/>
<path d="M117.75 118.7V107.9H119.558V112.91L123.87 107.9H126.09L121.448 113.195L126.405 118.7H124.11L119.558 113.66V118.7H117.75ZM129.727 118.925C129.142 118.925 128.647 118.815 128.242 118.595C127.837 118.37 127.529 118.073 127.319 117.703C127.114 117.333 127.012 116.925 127.012 116.48C127.012 116.09 127.077 115.74 127.207 115.43C127.337 115.115 127.537 114.845 127.807 114.62C128.077 114.39 128.427 114.203 128.857 114.058C129.182 113.953 129.562 113.858 129.997 113.773C130.437 113.688 130.912 113.61 131.422 113.54C131.937 113.465 132.474 113.385 133.034 113.3L132.389 113.668C132.394 113.108 132.269 112.695 132.014 112.43C131.759 112.165 131.329 112.033 130.724 112.033C130.359 112.033 130.007 112.118 129.667 112.288C129.327 112.458 129.089 112.75 128.954 113.165L127.304 112.648C127.504 111.963 127.884 111.413 128.444 110.998C129.009 110.583 129.769 110.375 130.724 110.375C131.444 110.375 132.077 110.493 132.622 110.728C133.172 110.963 133.579 111.348 133.844 111.883C133.989 112.168 134.077 112.46 134.107 112.76C134.137 113.055 134.152 113.378 134.152 113.728V118.7H132.569V116.945L132.832 117.23C132.467 117.815 132.039 118.245 131.549 118.52C131.064 118.79 130.457 118.925 129.727 118.925ZM130.087 117.485C130.497 117.485 130.847 117.413 131.137 117.268C131.427 117.123 131.657 116.945 131.827 116.735C132.002 116.525 132.119 116.328 132.179 116.143C132.274 115.913 132.327 115.65 132.337 115.355C132.352 115.055 132.359 114.813 132.359 114.628L132.914 114.793C132.369 114.878 131.902 114.953 131.512 115.018C131.122 115.083 130.787 115.145 130.507 115.205C130.227 115.26 129.979 115.323 129.764 115.393C129.554 115.468 129.377 115.555 129.232 115.655C129.087 115.755 128.974 115.87 128.894 116C128.819 116.13 128.782 116.283 128.782 116.458C128.782 116.658 128.832 116.835 128.932 116.99C129.032 117.14 129.177 117.26 129.367 117.35C129.562 117.44 129.802 117.485 130.087 117.485ZM136.09 118.7L136.105 110.6H137.935V114.5L140.897 110.6H143.155L140.012 114.65L143.425 118.7H141.032L137.935 114.8V118.7H136.09ZM147.164 118.7V110.6H148.971V113.795H152.609V110.6H154.416V118.7H152.609V115.49H148.971V118.7H147.164ZM158.775 118.925C158.19 118.925 157.695 118.815 157.29 118.595C156.885 118.37 156.577 118.073 156.367 117.703C156.162 117.333 156.06 116.925 156.06 116.48C156.06 116.09 156.125 115.74 156.255 115.43C156.385 115.115 156.585 114.845 156.855 114.62C157.125 114.39 157.475 114.203 157.905 114.058C158.23 113.953 158.61 113.858 159.045 113.773C159.485 113.688 159.96 113.61 160.47 113.54C160.985 113.465 161.522 113.385 162.082 113.3L161.437 113.668C161.442 113.108 161.317 112.695 161.062 112.43C160.807 112.165 160.377 112.033 159.772 112.033C159.407 112.033 159.055 112.118 158.715 112.288C158.375 112.458 158.137 112.75 158.002 113.165L156.352 112.648C156.552 111.963 156.932 111.413 157.492 110.998C158.057 110.583 158.817 110.375 159.772 110.375C160.492 110.375 161.125 110.493 161.67 110.728C162.22 110.963 162.627 111.348 162.892 111.883C163.037 112.168 163.125 112.46 163.155 112.76C163.185 113.055 163.2 113.378 163.2 113.728V118.7H161.617V116.945L161.88 117.23C161.515 117.815 161.087 118.245 160.597 118.52C160.112 118.79 159.505 118.925 158.775 118.925ZM159.135 117.485C159.545 117.485 159.895 117.413 160.185 117.268C160.475 117.123 160.705 116.945 160.875 116.735C161.05 116.525 161.167 116.328 161.227 116.143C161.322 115.913 161.375 115.65 161.385 115.355C161.4 115.055 161.407 114.813 161.407 114.628L161.962 114.793C161.417 114.878 160.95 114.953 160.56 115.018C160.17 115.083 159.835 115.145 159.555 115.205C159.275 115.26 159.027 115.323 158.812 115.393C158.602 115.468 158.425 115.555 158.28 115.655C158.135 115.755 158.022 115.87 157.942 116C157.867 116.13 157.83 116.283 157.83 116.458C157.83 116.658 157.88 116.835 157.98 116.99C158.08 117.14 158.225 117.26 158.415 117.35C158.61 117.44 158.85 117.485 159.135 117.485ZM169.87 118.7V115.978C169.59 116.118 169.27 116.228 168.91 116.308C168.555 116.388 168.182 116.428 167.792 116.428C166.957 116.428 166.29 116.24 165.79 115.865C165.295 115.49 164.975 114.945 164.83 114.23C164.785 114.025 164.752 113.813 164.732 113.593C164.717 113.368 164.707 113.165 164.702 112.985C164.702 112.8 164.702 112.66 164.702 112.565V110.6H166.532V112.565C166.532 112.675 166.537 112.838 166.547 113.053C166.557 113.263 166.585 113.473 166.63 113.683C166.725 114.083 166.897 114.375 167.147 114.56C167.397 114.745 167.755 114.838 168.22 114.838C168.58 114.838 168.897 114.79 169.172 114.695C169.447 114.6 169.68 114.48 169.87 114.335V110.6H171.685V118.7H169.87ZM176.045 118.925C175.46 118.925 174.965 118.815 174.56 118.595C174.155 118.37 173.848 118.073 173.638 117.703C173.433 117.333 173.33 116.925 173.33 116.48C173.33 116.09 173.395 115.74 173.525 115.43C173.655 115.115 173.855 114.845 174.125 114.62C174.395 114.39 174.745 114.203 175.175 114.058C175.5 113.953 175.88 113.858 176.315 113.773C176.755 113.688 177.23 113.61 177.74 113.54C178.255 113.465 178.793 113.385 179.353 113.3L178.708 113.668C178.713 113.108 178.588 112.695 178.333 112.43C178.078 112.165 177.648 112.033 177.043 112.033C176.678 112.033 176.325 112.118 175.985 112.288C175.645 112.458 175.408 112.75 175.273 113.165L173.623 112.648C173.823 111.963 174.203 111.413 174.763 110.998C175.328 110.583 176.088 110.375 177.043 110.375C177.763 110.375 178.395 110.493 178.94 110.728C179.49 110.963 179.898 111.348 180.163 111.883C180.308 112.168 180.395 112.46 180.425 112.76C180.455 113.055 180.47 113.378 180.47 113.728V118.7H178.888V116.945L179.15 117.23C178.785 117.815 178.358 118.245 177.868 118.52C177.383 118.79 176.775 118.925 176.045 118.925ZM176.405 117.485C176.815 117.485 177.165 117.413 177.455 117.268C177.745 117.123 177.975 116.945 178.145 116.735C178.32 116.525 178.438 116.328 178.498 116.143C178.593 115.913 178.645 115.65 178.655 115.355C178.67 115.055 178.678 114.813 178.678 114.628L179.233 114.793C178.688 114.878 178.22 114.953 177.83 115.018C177.44 115.083 177.105 115.145 176.825 115.205C176.545 115.26 176.298 115.323 176.083 115.393C175.873 115.468 175.695 115.555 175.55 115.655C175.405 115.755 175.293 115.87 175.213 116C175.138 116.13 175.1 116.283 175.1 116.458C175.1 116.658 175.15 116.835 175.25 116.99C175.35 117.14 175.495 117.26 175.685 117.35C175.88 117.44 176.12 117.485 176.405 117.485ZM184.455 118.7V112.205H181.748V110.6H188.97V112.205H186.263V118.7H184.455ZM190.384 118.7L190.377 110.6H192.184V113.3H193.639C193.864 113.3 194.117 113.305 194.397 113.315C194.682 113.325 194.919 113.348 195.109 113.383C195.564 113.483 195.952 113.643 196.272 113.863C196.597 114.083 196.844 114.37 197.014 114.725C197.184 115.08 197.269 115.508 197.269 116.008C197.269 116.723 197.084 117.295 196.714 117.725C196.349 118.15 195.834 118.44 195.169 118.595C194.969 118.64 194.724 118.67 194.434 118.685C194.149 118.695 193.892 118.7 193.662 118.7H190.384ZM192.184 117.283H193.819C193.929 117.283 194.052 117.278 194.187 117.268C194.322 117.258 194.452 117.235 194.577 117.2C194.802 117.14 194.999 117.005 195.169 116.795C195.344 116.58 195.432 116.318 195.432 116.008C195.432 115.683 195.344 115.415 195.169 115.205C194.994 114.995 194.779 114.858 194.524 114.793C194.409 114.763 194.289 114.743 194.164 114.733C194.039 114.723 193.924 114.718 193.819 114.718H192.184V117.283ZM205.812 118.925C205.022 118.925 204.36 118.738 203.825 118.363C203.29 117.988 202.887 117.478 202.617 116.833C202.347 116.183 202.212 115.455 202.212 114.65C202.212 113.835 202.347 113.105 202.617 112.46C202.887 111.815 203.282 111.308 203.802 110.938C204.327 110.563 204.975 110.375 205.745 110.375C206.51 110.375 207.172 110.563 207.732 110.938C208.297 111.308 208.735 111.815 209.045 112.46C209.355 113.1 209.51 113.83 209.51 114.65C209.51 115.46 209.357 116.188 209.052 116.833C208.747 117.478 208.317 117.988 207.762 118.363C207.207 118.738 206.557 118.925 205.812 118.925ZM201.905 122.3V110.6H203.502V116.285H203.727V122.3H201.905ZM205.535 117.305C206.005 117.305 206.392 117.188 206.697 116.953C207.002 116.718 207.227 116.4 207.372 116C207.522 115.595 207.597 115.145 207.597 114.65C207.597 114.16 207.522 113.715 207.372 113.315C207.222 112.91 206.99 112.59 206.675 112.355C206.36 112.115 205.96 111.995 205.475 111.995C205.015 111.995 204.64 112.108 204.35 112.333C204.06 112.553 203.845 112.863 203.705 113.263C203.57 113.658 203.502 114.12 203.502 114.65C203.502 115.175 203.57 115.638 203.705 116.038C203.845 116.438 204.062 116.75 204.357 116.975C204.657 117.195 205.05 117.305 205.535 117.305ZM213.428 118.925C212.843 118.925 212.348 118.815 211.943 118.595C211.538 118.37 211.231 118.073 211.021 117.703C210.816 117.333 210.713 116.925 210.713 116.48C210.713 116.09 210.778 115.74 210.908 115.43C211.038 115.115 211.238 114.845 211.508 114.62C211.778 114.39 212.128 114.203 212.558 114.058C212.883 113.953 213.263 113.858 213.698 113.773C214.138 113.688 214.613 113.61 215.123 113.54C215.638 113.465 216.176 113.385 216.736 113.3L216.091 113.668C216.096 113.108 215.971 112.695 215.716 112.43C215.461 112.165 215.031 112.033 214.426 112.033C214.061 112.033 213.708 112.118 213.368 112.288C213.028 112.458 212.791 112.75 212.656 113.165L211.006 112.648C211.206 111.963 211.586 111.413 212.146 110.998C212.711 110.583 213.471 110.375 214.426 110.375C215.146 110.375 215.778 110.493 216.323 110.728C216.873 110.963 217.281 111.348 217.546 111.883C217.691 112.168 217.778 112.46 217.808 112.76C217.838 113.055 217.853 113.378 217.853 113.728V118.7H216.271V116.945L216.533 117.23C216.168 117.815 215.741 118.245 215.251 118.52C214.766 118.79 214.158 118.925 213.428 118.925ZM213.788 117.485C214.198 117.485 214.548 117.413 214.838 117.268C215.128 117.123 215.358 116.945 215.528 116.735C215.703 116.525 215.821 116.328 215.881 116.143C215.976 115.913 216.028 115.65 216.038 115.355C216.053 115.055 216.061 114.813 216.061 114.628L216.616 114.793C216.071 114.878 215.603 114.953 215.213 115.018C214.823 115.083 214.488 115.145 214.208 115.205C213.928 115.26 213.681 115.323 213.466 115.393C213.256 115.468 213.078 115.555 212.933 115.655C212.788 115.755 212.676 115.87 212.596 116C212.521 116.13 212.483 116.283 212.483 116.458C212.483 116.658 212.533 116.835 212.633 116.99C212.733 117.14 212.878 117.26 213.068 117.35C213.263 117.44 213.503 117.485 213.788 117.485ZM223.173 118.94C222.403 118.93 221.748 118.758 221.208 118.423C220.668 118.088 220.246 117.615 219.941 117.005C219.636 116.395 219.451 115.675 219.386 114.845C219.356 114.42 219.353 113.945 219.378 113.42C219.403 112.895 219.458 112.383 219.543 111.883C219.628 111.383 219.746 110.958 219.896 110.608C220.051 110.258 220.253 109.935 220.503 109.64C220.753 109.34 221.023 109.09 221.313 108.89C221.643 108.66 222.001 108.483 222.386 108.358C222.776 108.233 223.183 108.138 223.608 108.073C224.033 108.003 224.471 107.94 224.921 107.885C225.371 107.83 225.816 107.76 226.256 107.675L226.421 109.273C226.141 109.343 225.816 109.398 225.446 109.438C225.081 109.473 224.701 109.513 224.306 109.558C223.916 109.603 223.543 109.668 223.188 109.753C222.833 109.838 222.526 109.963 222.266 110.128C221.906 110.348 221.631 110.663 221.441 111.073C221.251 111.483 221.138 111.915 221.103 112.37C221.413 111.91 221.798 111.588 222.258 111.403C222.723 111.213 223.193 111.118 223.668 111.118C224.388 111.118 225.006 111.288 225.521 111.628C226.041 111.968 226.438 112.43 226.713 113.015C226.993 113.595 227.133 114.243 227.133 114.958C227.133 115.758 226.966 116.458 226.631 117.058C226.296 117.658 225.831 118.123 225.236 118.453C224.641 118.783 223.953 118.945 223.173 118.94ZM223.263 117.245C223.913 117.245 224.403 117.045 224.733 116.645C225.068 116.24 225.236 115.703 225.236 115.033C225.236 114.348 225.063 113.808 224.718 113.413C224.378 113.018 223.893 112.82 223.263 112.82C222.623 112.82 222.136 113.018 221.801 113.413C221.466 113.808 221.298 114.348 221.298 115.033C221.298 115.733 221.468 116.278 221.808 116.668C222.148 117.053 222.633 117.245 223.263 117.245ZM232.363 118.925C231.553 118.925 230.845 118.743 230.24 118.378C229.635 118.013 229.165 117.51 228.83 116.87C228.5 116.225 228.335 115.485 228.335 114.65C228.335 113.8 228.505 113.055 228.845 112.415C229.185 111.775 229.658 111.275 230.263 110.915C230.868 110.555 231.568 110.375 232.363 110.375C233.178 110.375 233.888 110.558 234.493 110.923C235.098 111.288 235.568 111.793 235.903 112.438C236.238 113.078 236.405 113.815 236.405 114.65C236.405 115.49 236.235 116.233 235.895 116.878C235.56 117.518 235.09 118.02 234.485 118.385C233.88 118.745 233.173 118.925 232.363 118.925ZM232.363 117.23C233.083 117.23 233.618 116.99 233.968 116.51C234.318 116.03 234.493 115.41 234.493 114.65C234.493 113.865 234.315 113.24 233.96 112.775C233.605 112.305 233.073 112.07 232.363 112.07C231.878 112.07 231.478 112.18 231.163 112.4C230.853 112.615 230.623 112.918 230.473 113.308C230.323 113.693 230.248 114.14 230.248 114.65C230.248 115.435 230.425 116.063 230.78 116.533C231.14 116.998 231.668 117.23 232.363 117.23ZM239.929 118.7V112.205H237.221V110.6H244.444V112.205H241.736V118.7H239.929ZM246.681 122.3L248.241 118.018L248.271 119.278L244.739 110.6H246.621L249.126 117.02H248.646L251.084 110.6H252.891L248.376 122.3H246.681ZM260.53 118.925C259.695 118.925 258.983 118.74 258.393 118.37C257.803 117.995 257.35 117.485 257.035 116.84C256.725 116.195 256.568 115.465 256.563 114.65C256.568 113.82 256.73 113.085 257.05 112.445C257.375 111.8 257.835 111.295 258.43 110.93C259.025 110.56 259.733 110.375 260.553 110.375C261.473 110.375 262.25 110.608 262.885 111.073C263.525 111.533 263.943 112.163 264.138 112.963L262.338 113.45C262.198 113.015 261.965 112.678 261.64 112.438C261.315 112.193 260.945 112.07 260.53 112.07C260.06 112.07 259.673 112.183 259.368 112.408C259.063 112.628 258.838 112.933 258.693 113.323C258.548 113.713 258.475 114.155 258.475 114.65C258.475 115.42 258.648 116.043 258.993 116.518C259.338 116.993 259.85 117.23 260.53 117.23C261.01 117.23 261.388 117.12 261.663 116.9C261.943 116.68 262.153 116.363 262.293 115.948L264.138 116.36C263.888 117.185 263.45 117.82 262.825 118.265C262.2 118.705 261.435 118.925 260.53 118.925ZM117.75 138.7V127.9H119.58L124.59 135.513V127.9H126.42V138.7H124.59L119.58 131.088V138.7H117.75ZM131.554 138.933C130.954 138.933 130.459 138.833 130.069 138.633C129.679 138.433 129.369 138.178 129.139 137.868C128.909 137.558 128.739 137.228 128.629 136.878C128.519 136.528 128.447 136.198 128.412 135.888C128.382 135.573 128.367 135.318 128.367 135.123V130.6H130.197V134.5C130.197 134.75 130.214 135.033 130.249 135.348C130.284 135.658 130.364 135.958 130.489 136.248C130.619 136.533 130.809 136.768 131.059 136.953C131.314 137.138 131.657 137.23 132.087 137.23C132.317 137.23 132.544 137.193 132.769 137.118C132.994 137.043 133.197 136.915 133.377 136.735C133.562 136.55 133.709 136.298 133.819 135.978C133.929 135.658 133.984 135.253 133.984 134.763L135.057 135.22C135.057 135.91 134.922 136.535 134.652 137.095C134.387 137.655 133.994 138.103 133.474 138.438C132.954 138.768 132.314 138.933 131.554 138.933ZM134.202 138.7V136.188H133.984V130.6H135.799V138.7H134.202ZM137.906 138.7V130.6H139.504V132.573L139.309 132.318C139.409 132.048 139.541 131.803 139.706 131.583C139.876 131.358 140.079 131.173 140.314 131.028C140.514 130.893 140.734 130.788 140.974 130.713C141.219 130.633 141.469 130.585 141.724 130.57C141.979 130.55 142.226 130.56 142.466 130.6V132.288C142.226 132.218 141.949 132.195 141.634 132.22C141.324 132.245 141.044 132.333 140.794 132.483C140.544 132.618 140.339 132.79 140.179 133C140.024 133.21 139.909 133.45 139.834 133.72C139.759 133.985 139.721 134.273 139.721 134.583V138.7H137.906ZM148.465 138.925C147.385 138.925 146.46 138.69 145.69 138.22C144.92 137.745 144.327 137.085 143.912 136.24C143.502 135.395 143.297 134.415 143.297 133.3C143.297 132.185 143.502 131.205 143.912 130.36C144.327 129.515 144.92 128.858 145.69 128.388C146.46 127.913 147.385 127.675 148.465 127.675C149.71 127.675 150.747 127.988 151.577 128.613C152.407 129.233 152.99 130.07 153.325 131.125L151.502 131.628C151.292 130.923 150.935 130.373 150.43 129.978C149.925 129.578 149.27 129.378 148.465 129.378C147.74 129.378 147.135 129.54 146.65 129.865C146.17 130.19 145.807 130.648 145.562 131.238C145.322 131.823 145.2 132.51 145.195 133.3C145.195 134.09 145.315 134.78 145.555 135.37C145.8 135.955 146.165 136.41 146.65 136.735C147.135 137.06 147.74 137.223 148.465 137.223C149.27 137.223 149.925 137.023 150.43 136.623C150.935 136.223 151.292 135.673 151.502 134.973L153.325 135.475C152.99 136.53 152.407 137.37 151.577 137.995C150.747 138.615 149.71 138.925 148.465 138.925ZM154.972 138.7V127.9H159.434C159.539 127.9 159.674 127.905 159.839 127.915C160.004 127.92 160.157 127.935 160.297 127.96C160.922 128.055 161.437 128.263 161.842 128.583C162.252 128.903 162.554 129.308 162.749 129.798C162.949 130.283 163.049 130.823 163.049 131.418C163.049 132.298 162.827 133.055 162.382 133.69C161.937 134.32 161.254 134.71 160.334 134.86L159.562 134.928H156.779V138.7H154.972ZM161.174 138.7L159.044 134.305L160.882 133.9L163.222 138.7H161.174ZM156.779 133.24H159.359C159.459 133.24 159.572 133.235 159.697 133.225C159.822 133.215 159.937 133.195 160.042 133.165C160.342 133.09 160.577 132.958 160.747 132.768C160.922 132.578 161.044 132.363 161.114 132.123C161.189 131.883 161.227 131.648 161.227 131.418C161.227 131.188 161.189 130.953 161.114 130.713C161.044 130.468 160.922 130.25 160.747 130.06C160.577 129.87 160.342 129.738 160.042 129.663C159.937 129.633 159.822 129.615 159.697 129.61C159.572 129.6 159.459 129.595 159.359 129.595H156.779V133.24ZM164.874 138.7V127.9H166.502L170.237 135.55L173.972 127.9H175.599V138.7H173.912V131.778L170.597 138.7H169.877L166.569 131.778V138.7H164.874Z" fill="black"/>
<line x1="120.7" y1="158.7" x2="163.7" y2="158.7" stroke="#DCDEE2" stroke-width="8" stroke-linecap="round"/>
<line x1="37.7" y1="218.7" x2="80.7" y2="218.7" stroke="#F0F0F0" stroke-width="8" stroke-linecap="round"/>
<line x1="37.7" y1="250.7" x2="80.7" y2="250.7" stroke="#FFF2D7" stroke-width="8" stroke-linecap="round"/>
<line x1="110.7" y1="250.7" x2="211.7" y2="250.7" stroke="#F0F0F0" stroke-width="8" stroke-linecap="round"/>
<line x1="37.7" y1="269.7" x2="80.7" y2="269.7" stroke="#DCDEE2" stroke-width="8" stroke-linecap="round"/>
<line x1="110.7" y1="269.7" x2="173.7" y2="269.7" stroke="#F0F0F0" stroke-width="8" stroke-linecap="round"/>
<line x1="110.7" y1="218.7" x2="208.7" y2="218.7" stroke="#F0F0F0" stroke-width="8" stroke-linecap="round"/>
<defs>
<filter id="filter0_d_1481_6525" x="21" y="18.0002" width="339.4" height="309.4" filterUnits="userSpaceOnUse" color-interpolation-filters="sRGB">
<feFlood flood-opacity="0" result="BackgroundImageFix"/>
<feColorMatrix in="SourceAlpha" type="matrix" values="0 0 0 0 0 0 0 0 0 0 0 0 0 0 0 0 0 0 127 0" result="hardAlpha"/>
<feOffset dx="4" dy="3"/>
<feGaussianBlur stdDeviation="4.85"/>
<feComposite in2="hardAlpha" operator="out"/>
<feColorMatrix type="matrix" values="0 0 0 0 0 0 0 0 0 0 0 0 0 0 0 0 0 0 0.15 0"/>
<feBlend mode="normal" in2="BackgroundImageFix" result="effect1_dropShadow_1481_6525"/>
<feBlend mode="normal" in="SourceGraphic" in2="effect1_dropShadow_1481_6525" result="shape"/>
</filter>
<filter id="filter1_d_1481_6525" x="1.23978e-05" y="0.000195503" width="339.4" height="309.4" filterUnits="userSpaceOnUse" color-interpolation-filters="sRGB">
<feFlood flood-opacity="0" result="BackgroundImageFix"/>
<feColorMatrix in="SourceAlpha" type="matrix" values="0 0 0 0 0 0 0 0 0 0 0 0 0 0 0 0 0 0 127 0" result="hardAlpha"/>
<feOffset dx="4" dy="3"/>
<feGaussianBlur stdDeviation="4.85"/>
<feComposite in2="hardAlpha" operator="out"/>
<feColorMatrix type="matrix" values="0 0 0 0 0 0 0 0 0 0 0 0 0 0 0 0 0 0 0.15 0"/>
<feBlend mode="normal" in2="BackgroundImageFix" result="effect1_dropShadow_1481_6525"/>
<feBlend mode="normal" in="SourceGraphic" in2="effect1_dropShadow_1481_6525" result="shape"/>
</filter>
<filter id="filter2_d_1481_6525" x="16" y="74.0002" width="307.4" height="127.4" filterUnits="userSpaceOnUse" color-interpolation-filters="sRGB">
<feFlood flood-opacity="0" result="BackgroundImageFix"/>
<feColorMatrix in="SourceAlpha" type="matrix" values="0 0 0 0 0 0 0 0 0 0 0 0 0 0 0 0 0 0 127 0" result="hardAlpha"/>
<feOffset dx="4" dy="3"/>
<feGaussianBlur stdDeviation="4.85"/>
<feComposite in2="hardAlpha" operator="out"/>
<feColorMatrix type="matrix" values="0 0 0 0 0 0 0 0 0 0 0 0 0 0 0 0 0 0 0.15 0"/>
<feBlend mode="normal" in2="BackgroundImageFix" result="effect1_dropShadow_1481_6525"/>
<feBlend mode="normal" in="SourceGraphic" in2="effect1_dropShadow_1481_6525" result="shape"/>
</filter>
</defs>
</svg>
