<svg width="120" height="65" viewBox="0 0 120 65" fill="none" xmlns="http://www.w3.org/2000/svg">
<path d="M64.4028 -7.62939e-06H62.9061L39.5229 23.3823C39.2741 23.1737 39.0152 22.9768 38.749 22.7898L51.9073 -7.62939e-06H49.5889L37.0111 21.7846C36.7174 21.6479 36.418 21.5213 36.1113 21.4096L41.8482 -7.62939e-06H39.7704L34.1715 20.8946C33.8537 20.8393 33.5315 20.7965 33.2052 20.7681V-7.62939e-06H31.1979V20.7681C30.8716 20.7965 30.5494 20.8393 30.2313 20.8946L24.6318 -7.62939e-06H22.5539L28.2915 21.4096C27.9848 21.5213 27.6854 21.6482 27.3917 21.7849L14.8129 -7.62939e-06H12.4946L25.6538 22.7901C25.3876 22.9771 25.1287 23.174 24.8799 23.3826L1.49547 -7.62939e-06H0V1.34349L23.4601 24.8014C23.2512 25.0502 23.054 25.3087 22.8666 25.5749L0 12.3741V14.6918L21.8599 27.3115C21.7228 27.6055 21.5956 27.9052 21.4832 28.2122L0 22.4565V24.5346L20.967 30.152C20.9113 30.47 20.8683 30.7925 20.8398 31.1195L0 31.1198V33.127L20.8385 33.1267C20.867 33.4536 20.9094 33.7764 20.9645 34.0948L0 39.7122V41.7902L21.4788 36.0349C21.5911 36.3425 21.7177 36.6429 21.8551 36.9378L0 49.5556V51.8733L22.8597 38.6754C23.0477 38.9434 23.2509 39.1998 23.4607 39.4504L32.2016 35.1164L40.9421 39.4504C41.1522 39.1998 41.3554 38.9431 41.5434 38.675L64.4028 51.872V49.5544L42.548 36.9372C42.6854 36.6425 42.8123 36.3425 42.924 36.0346L64.4028 41.7896V39.7115L43.4383 34.0945C43.4937 33.7761 43.5361 33.4533 43.5643 33.1263L64.4028 33.126V31.1188L43.5634 31.1192C43.5346 30.7922 43.4915 30.4697 43.4358 30.1517L64.4028 24.5336V22.4556L42.9196 28.2119C42.8072 27.9049 42.68 27.6052 42.543 27.3112L64.4028 14.6908V12.3732L41.5362 25.5746C41.3488 25.3084 41.1516 25.0498 40.9427 24.8011L64.4028 1.34159V-7.62939e-06Z" fill="#FFCE00"/>
<path d="M63.0615 64.4H64.4028V62.9027L32.2016 30.7034L0 62.9043V64.4H1.34292L27.5202 38.2232L12.4069 64.4H14.7253L29.259 39.2267L22.5141 64.4H24.5919L31.1979 39.7455L31.1983 64.4H33.2055L33.2052 39.7458L39.8119 64.4H41.8897L35.1441 39.2264L49.6788 64.4H51.9972L36.8829 38.2232L63.0615 64.4Z" fill="black"/>
<path d="M100.251 27.563V36.275V40.483H96.5417C96.5084 40.4837 96.48 40.4906 96.4464 40.4906C96.3818 40.4906 96.3208 40.4852 96.2578 40.483H92.6202V36.1671V27.563H89.961V36.275C89.961 38.4366 90.5338 40.0871 91.6796 41.2252C92.8253 42.3642 94.3999 42.9333 96.4031 42.9333C98.4353 42.9333 100.028 42.3532 101.181 41.1929C102.334 40.033 102.91 38.3502 102.91 36.1452V27.563H100.251Z" fill="black"/>
<path d="M72.8718 42.9333V27.8007H75.3364L83.4433 38.2639V27.8007H86.0591V42.9333H83.8322L75.4873 32.1676V42.9333H72.8718Z" fill="black"/>
<path d="M109.817 35.367V30.2219H113.687H116.813V32.6383C116.814 32.6702 116.822 32.6974 116.822 32.7297C116.822 32.7607 116.814 32.7873 116.813 32.8177V35.367H109.817ZM115.914 37.2046C117.024 36.8878 117.903 36.3437 118.552 35.5724C119.2 34.8015 119.524 33.8178 119.524 32.6215C119.524 31.1517 119.027 29.9807 118.033 29.1088C117.038 28.2368 115.662 27.8007 113.903 27.8007H107.159V42.9333H109.817V37.6587H113.104L116.865 42.9333H120L115.914 37.2046Z" fill="black"/>
<path d="M104.547 64.1453V49.2842H107.329L111.851 56.3115L116.373 49.2842H119.154V64.1453H116.543V54.3056C116.307 54.2344 116.323 54.2388 116.087 54.1673L111.851 60.4936H111.766L107.572 54.2122C107.336 54.2834 107.351 54.279 107.116 54.3502V64.1453H104.547Z" fill="black"/>
<path d="M91.8089 56.7148V56.6512V51.662H95.6095H98.6795V54.0351C98.6805 54.0664 98.6875 54.093 98.6875 54.1246C98.6875 54.1553 98.6802 54.1813 98.6795 54.211V56.7148H91.8089ZM97.7959 58.5194C98.8856 58.2083 99.7493 57.6741 100.386 56.9167C101.023 56.1593 101.342 55.1934 101.342 54.0186C101.342 52.5751 100.853 51.4253 99.8766 50.5689C98.8998 49.7128 97.548 49.2842 95.8215 49.2842H89.1978V64.1453H91.8089V58.9653H95.036L98.7302 64.1453H101.808L97.7959 58.5194Z" fill="black"/>
<path d="M86.459 49.0297H80.5357C78.3132 49.0297 76.4806 49.7728 75.0368 51.2587C73.5932 52.745 72.8712 54.5635 72.8712 56.715C72.8712 58.8801 73.5932 60.7025 75.0368 62.1814C76.4806 63.6604 78.2781 64.4 80.4293 64.4C80.4654 64.4 80.4999 64.3981 80.5357 64.3978V64.4H86.459V62.0007H80.5357C80.5284 62.0007 80.5214 62.001 80.5145 62.001C80.5103 62.001 80.5062 62.0007 80.5021 62.0007H75.6122V56.7641C75.6118 56.7476 75.6099 56.7318 75.6099 56.715C75.6099 56.6979 75.6118 56.6818 75.6122 56.6647V51.4293H80.5018C80.5062 51.4293 80.51 51.4287 80.5145 51.4287C80.5214 51.4287 80.5284 51.4293 80.5357 51.4293H86.459V49.0297Z" fill="black"/>
</svg>
