<svg width="37" height="37" viewBox="0 0 37 37" fill="none" xmlns="http://www.w3.org/2000/svg">
<g clip-path="url(#clip0_1470_6192)">
<path d="M18.4999 29.8079C24.8726 29.8079 30.0387 24.7452 30.0387 18.4999C30.0387 12.2547 24.8726 7.19189 18.4999 7.19189C12.1272 7.19189 6.96109 12.2547 6.96109 18.4999C6.96109 24.7452 12.1272 29.8079 18.4999 29.8079Z" fill="#F7D617"/>
<path d="M14.1014 27.0421C14.0351 27.0421 13.968 27.0269 13.9055 26.9944C13.7008 26.8879 13.6228 26.6392 13.7314 26.4382L22.5279 10.1767C22.6366 9.97604 22.8904 9.89957 23.0955 10.006C23.2998 10.1121 23.3783 10.3612 23.2696 10.5619L14.4727 26.8238C14.3972 26.9623 14.2516 27.0421 14.1014 27.0421Z" fill="white"/>
<path d="M14.0868 18.0547C12.5854 18.0547 11.3638 16.8575 11.3638 15.3857V12.6268C11.3638 11.1554 12.5854 9.95825 14.0868 9.95825C15.5881 9.95825 16.8102 11.1554 16.8102 12.6268V15.3857C16.8097 16.8571 15.5881 18.0547 14.0868 18.0547ZM14.0868 10.7805C13.0481 10.7805 12.2028 11.6089 12.2028 12.6268V15.3857C12.2028 16.4041 13.0481 17.232 14.0868 17.232C15.1259 17.232 15.9707 16.4037 15.9707 15.3857V12.6268C15.9707 11.6085 15.1254 10.7805 14.0868 10.7805Z" fill="white"/>
<path d="M22.913 27.0419C21.4117 27.0419 20.1901 25.8447 20.1901 24.373V21.614C20.1901 20.1422 21.4117 18.9451 22.913 18.9451C24.4149 18.9451 25.6364 20.1422 25.6364 21.614V24.373C25.6364 25.8447 24.4149 27.0419 22.913 27.0419ZM22.913 19.7673C21.8744 19.7673 21.0295 20.5957 21.0295 21.6136V24.3726C21.0295 25.3905 21.8744 26.2189 22.913 26.2189C23.9517 26.2189 24.797 25.3905 24.797 24.3726V21.6136C24.797 20.5961 23.9517 19.7673 22.913 19.7673Z" fill="white"/>
<path d="M18.4999 37C17.5753 37.0004 16.6507 36.6703 15.9305 36.0105C15.1632 35.3083 14.0641 35.0624 13.0623 35.3687C11.1804 35.9459 9.14628 34.9851 8.43229 33.1837C8.05222 32.2245 7.17085 31.5359 6.13216 31.3863C4.18106 31.1047 2.77363 29.3751 2.92801 27.4491C3.01023 26.4229 2.52109 25.428 1.65147 24.8513C0.0187678 23.7684 -0.483795 21.6113 0.507906 19.9414C1.03606 19.0521 1.03606 17.9475 0.507906 17.0582C-0.483795 15.3883 0.0183483 13.2316 1.65147 12.1483C2.52109 11.5715 3.01023 10.5762 2.92801 9.55052C2.77363 7.62406 4.18106 5.89451 6.13216 5.61331C7.17085 5.46367 8.0518 4.77464 8.43229 3.81552C9.1467 2.01444 11.1804 1.05532 13.0623 1.63047C14.0637 1.93716 15.1632 1.69131 15.9305 0.989133C17.3714 -0.329711 19.6296 -0.329711 21.0693 0.989133C21.837 1.69172 22.9365 1.93757 23.9375 1.63047C25.8202 1.05532 27.8535 2.01486 28.5679 3.81593C28.9476 4.77506 29.8294 5.46367 30.8681 5.61372C32.8187 5.89492 34.2262 7.62447 34.0722 9.55093C33.99 10.5767 34.4791 11.572 35.3488 12.1487C36.9814 13.2316 37.484 15.3883 36.4919 17.0586C35.9642 17.9479 35.9642 19.0529 36.4919 19.9418C37.484 21.6117 36.9814 23.7688 35.3488 24.8517C34.4791 25.4285 33.99 26.4233 34.0722 27.4495C34.2257 29.3764 32.8187 31.1059 30.8681 31.3867C29.8294 31.5363 28.948 32.2254 28.5675 33.1841C27.8535 34.9851 25.8206 35.9459 23.9379 35.3691C22.9357 35.0633 21.837 35.3087 21.0698 36.0109C20.3491 36.6703 19.4245 37 18.4999 37ZM13.9307 34.417C14.8721 34.417 15.7971 34.7627 16.5035 35.4098C17.6231 36.4347 19.3775 36.4347 20.4967 35.4098C21.4838 34.5054 22.8988 34.1892 24.1879 34.5843C25.6532 35.0312 27.231 34.2858 27.7851 32.886C28.2747 31.6519 29.409 30.7655 30.7456 30.5731C32.2612 30.3548 33.3549 29.0105 33.2353 27.5136C33.1296 26.1931 33.7588 24.9121 34.8781 24.1705C36.1471 23.3289 36.5372 21.6532 35.7666 20.3553C35.0874 19.2112 35.0874 17.7892 35.7666 16.6451C36.5372 15.3472 36.1471 13.6715 34.8781 12.83C33.7588 12.0879 33.1296 10.8069 33.2353 9.4868C33.3549 7.98994 32.2612 6.64602 30.7456 6.42731C29.409 6.2345 28.2743 5.34814 27.7851 4.11399C27.2306 2.71457 25.6532 1.96881 24.1879 2.4161C22.8988 2.81036 21.4838 2.49421 20.4967 1.59059C19.3771 0.565278 17.6227 0.565689 16.5035 1.59059C15.516 2.49462 14.1023 2.81077 12.8123 2.4161C11.3495 1.96799 9.76924 2.71457 9.21466 4.11399C8.72552 5.34814 7.59119 6.2345 6.25466 6.42731C4.73858 6.64602 3.64494 7.98994 3.76533 9.4868C3.87105 10.8069 3.24138 12.0879 2.12257 12.83C0.853575 13.6715 0.463439 15.3472 1.23406 16.6451C1.91366 17.7896 1.91366 19.2116 1.23406 20.3553C0.463439 21.6532 0.853995 23.3289 2.12257 24.1705C3.2418 24.9121 3.87105 26.1931 3.76533 27.5136C3.64536 29.0105 4.739 30.3544 6.25466 30.5731C7.59119 30.7655 8.72552 31.6523 9.21466 32.886C9.76966 34.2858 11.3503 35.0304 12.8123 34.5843C13.1789 34.4717 13.5561 34.417 13.9307 34.417Z" fill="white"/>
<path d="M18.4999 32.2752C15.0143 32.2752 11.6708 31.016 9.08545 28.729C8.91345 28.5769 8.90003 28.317 9.05524 28.1485C9.21046 27.9799 9.47516 27.9664 9.64758 28.1189C12.0786 30.269 15.2223 31.453 18.4999 31.453C25.7879 31.453 31.7171 25.6424 31.7171 18.5001C31.7171 11.3579 25.7879 5.54724 18.4999 5.54724C11.2119 5.54724 5.28267 11.3579 5.28267 18.5001C5.28267 20.2683 5.63966 21.9822 6.34359 23.5934C6.43462 23.8022 6.33604 24.044 6.12293 24.1332C5.90982 24.2236 5.66357 24.1254 5.57212 23.9169C4.82331 22.2026 4.44366 20.3801 4.44366 18.4997C4.44366 10.904 10.7492 4.72461 18.4999 4.72461C26.2506 4.72461 32.5561 10.904 32.5561 18.4997C32.5565 26.0958 26.2506 32.2752 18.4999 32.2752Z" fill="white"/>
</g>
<defs>
<clipPath id="clip0_1470_6192">
<rect width="37" height="37" fill="white"/>
</clipPath>
</defs>
</svg>
