<svg width="827" height="495" viewBox="0 0 827 495" fill="none" xmlns="http://www.w3.org/2000/svg">
<path d="M0.519516 433.077C0.519516 433.077 152.786 525.664 236.52 482.577C308.62 445.476 386.757 368.839 340.02 302.577C324.015 279.886 310.606 263.228 283.02 260.077C257.405 257.15 229.45 259.545 221.52 284.077C211.982 313.58 252.519 345.076 283.02 345.076C387.811 345.076 406.609 214.483 508.019 188.077C553.656 176.193 600.496 150.559 636.019 181.576C656.3 199.284 666.519 225.576 649.019 248.076C627.321 275.974 596.34 267.719 568.019 246.576C528.177 216.832 540.649 146.976 574.519 110.576C602.219 80.8088 624.358 73.5762 665.019 73.5762C714.519 73.5762 750.811 116.909 787.519 92.0762C819.655 70.3366 825.019 0.0764195 825.019 0.0764195" stroke="#F2B705" stroke-opacity="0.8" stroke-width="2" stroke-dasharray="5 5"/>
</svg>
