<svg width="50" height="50" viewBox="0 0 50 50" fill="none" xmlns="http://www.w3.org/2000/svg">
<path d="M31.9433 46.6667H18.0567C16.4678 46.6667 15.18 45.3789 15.18 43.79V6.21C15.18 4.62111 16.4678 3.33334 18.0567 3.33334H31.9433C33.5322 3.33334 34.82 4.62111 34.82 6.21V43.7906C34.82 45.3789 33.5322 46.6667 31.9433 46.6667Z" fill="#F7D617"/>
<path d="M38.2394 29.0583H28.9567C28.7128 29.0583 28.4967 28.8989 28.4256 28.6656L25.37 18.6767H22.5556C22.2489 18.6767 22 18.4278 22 18.1211C22 17.8144 22.2489 17.5656 22.5556 17.5656H25.7811C26.025 17.5656 26.2411 17.725 26.3122 17.9589L29.3678 27.9478H37.8706L40.4567 21.7911H31.9244C31.6172 21.7911 31.3689 21.5422 31.3689 21.2356C31.3689 20.9289 31.6172 20.68 31.9244 20.68H41.2928C41.4789 20.68 41.6522 20.7728 41.7556 20.9278C41.8589 21.0828 41.8772 21.2789 41.805 21.4506L38.7517 28.7183C38.665 28.9239 38.4628 29.0583 38.2394 29.0583Z" fill="white"/>
<path d="M31.3472 32.6944C32.0913 32.6944 32.6944 32.0913 32.6944 31.3472C32.6944 30.6032 32.0913 30 31.3472 30C30.6032 30 30 30.6032 30 31.3472C30 32.0913 30.6032 32.6944 31.3472 32.6944Z" fill="white"/>
<path d="M37.8972 33.5539C38.6413 33.5539 39.2444 32.9507 39.2444 32.2067C39.2444 31.4626 38.6413 30.8594 37.8972 30.8594C37.1532 30.8594 36.55 31.4626 36.55 32.2067C36.55 32.9507 37.1532 33.5539 37.8972 33.5539Z" fill="white"/>
<path d="M21.7139 29.0583H13.2583C12.9517 29.0583 12.7028 28.81 12.7028 28.5028C12.7028 28.1956 12.9517 27.9472 13.2583 27.9472H21.7139C22.0206 27.9472 22.2694 28.1956 22.2694 28.5028C22.2694 28.81 22.0211 29.0583 21.7139 29.0583Z" fill="white"/>
<path d="M20.4494 19.1111H8.86611C8.55944 19.1111 8.31055 18.8622 8.31055 18.5556C8.31055 18.2489 8.55944 18 8.86611 18H20.4494C20.7561 18 21.005 18.2489 21.005 18.5556C21.005 18.8622 20.7561 19.1111 20.4494 19.1111Z" fill="white"/>
<path d="M25.8444 46.1111H24.1556C23.8489 46.1111 23.6 45.8628 23.6 45.5556C23.6 45.2483 23.8489 45 24.1556 45H25.8439C26.1511 45 26.3994 45.2483 26.3994 45.5556C26.3994 45.8628 26.1511 46.1111 25.8444 46.1111Z" fill="white"/>
<path d="M22.0889 5H21.2444C20.9378 5 20.6889 4.75111 20.6889 4.44444C20.6889 4.13777 20.9378 3.88889 21.2444 3.88889H22.0889C22.3956 3.88889 22.6444 4.13777 22.6444 4.44444C22.6444 4.75111 22.3956 5 22.0889 5Z" fill="white"/>
<path d="M28.7555 5H24.5778C24.2711 5 24.0222 4.75111 24.0222 4.44444C24.0222 4.13777 24.2711 3.88889 24.5778 3.88889H28.7555C29.0628 3.88889 29.3111 4.13777 29.3111 4.44444C29.3111 4.75111 29.0628 5 28.7555 5Z" fill="white"/>
<path d="M12.0942 18.6761C11.7876 18.6761 11.5387 18.4272 11.5387 18.1206V3.70722C11.5387 1.66333 13.2015 0 15.2453 0H34.7537C36.7981 0 38.4609 1.66333 38.4609 3.70722V17.4306C38.4609 17.7372 38.2126 17.9861 37.9053 17.9861C37.5981 17.9861 37.3498 17.7372 37.3498 17.4306V3.70722C37.3498 2.27556 36.1853 1.11111 34.7542 1.11111H15.2453C13.8137 1.11111 12.6492 2.27556 12.6492 3.70722V18.1206C12.6498 18.4272 12.4009 18.6761 12.0942 18.6761Z" fill="white"/>
<path d="M34.7544 50H15.2456C13.2017 50 11.5383 48.3372 11.5383 46.2928V32.6678C11.5383 32.3606 11.7872 32.1122 12.0939 32.1122C12.4006 32.1122 12.6494 32.3606 12.6494 32.6678V46.2928C12.6494 47.7239 13.8139 48.8889 15.2456 48.8889H34.7539C36.185 48.8889 37.35 47.7239 37.35 46.2928V37.195C37.35 36.8878 37.5983 36.6394 37.9056 36.6394C38.2128 36.6394 38.4611 36.8878 38.4611 37.195V46.2928C38.4611 48.3372 36.7983 50 34.7544 50Z" fill="white"/>
</svg>
